<svg width="164" height="35" viewBox="0 0 164 35" fill="none" xmlns="http://www.w3.org/2000/svg">
<g opacity="0.7" clip-path="url(#clip0_168_3504)">
<g clip-path="url(#clip1_168_3504)">
<g clip-path="url(#clip2_168_3504)">
<path d="M15.3377 30.8336V0.453125C6.86664 0.453125 0 7.25332 0 15.6434C0 24.0334 6.86664 30.8336 15.3377 30.8336Z" fill="white"/>
<path d="M17.5283 25.4515C24.2086 25.4515 29.6232 20.0888 29.6232 13.4734C29.6232 6.85788 24.2086 1.4952 17.5283 1.4952V0.453125C24.7888 0.453125 30.6749 6.28256 30.6749 13.4734C30.6749 20.6641 24.7888 26.4936 17.5283 26.4936V25.4515Z" fill="white"/>
<path d="M17.5283 16.0373V14.9953C18.4002 14.9953 19.1068 14.2952 19.1068 13.433C19.1068 12.5708 18.4002 11.8707 17.53 11.8707V10.8286C18.9821 10.8286 20.1603 11.9939 20.1603 13.433C20.157 14.8705 18.9804 16.0373 17.5283 16.0373Z" fill="white"/>
<path d="M21.7355 13.3928C21.7355 15.6941 19.8523 17.5594 17.5283 17.5594V18.6015C20.4325 18.6015 22.7873 16.2694 22.7873 13.3928C22.7873 10.5161 20.4325 8.18408 17.5283 8.18408V9.22615C19.8507 9.22777 21.7355 11.0931 21.7355 13.3928Z" fill="white"/>
<path d="M17.5283 20.3258C21.3044 20.3258 24.3642 17.2952 24.3642 13.5547C24.3642 9.81597 21.3028 6.78376 17.5283 6.78376V5.7417C21.8846 5.7417 25.416 9.23903 25.416 13.5531C25.416 17.8673 21.8846 21.3646 17.5283 21.3646V20.3258Z" fill="white"/>
<path d="M26.9965 13.5139C26.9965 18.6918 22.7585 22.8892 17.5303 22.8892V23.9313C23.3387 23.9313 28.0466 19.2671 28.0466 13.5155C28.0466 7.76219 23.3387 3.09961 17.5303 3.09961V4.14168C22.7601 4.14006 26.9965 8.33589 26.9965 13.5139Z" fill="white"/>
<path d="M68.6148 8.04932C69.3343 8.04932 69.9534 8.307 70.472 8.82074C70.9906 9.31503 71.2515 9.90818 71.2515 10.6002C71.2515 11.2728 70.9922 11.8659 70.472 12.3797C69.9534 12.8934 69.3343 13.1511 68.6148 13.1511C67.8952 13.1511 67.2761 12.8934 66.7575 12.3797C66.2584 11.8659 66.0088 11.2728 66.0088 10.6002C66.0088 9.90818 66.2584 9.31503 66.7575 8.82074C67.2761 8.30538 67.8952 8.04932 68.6148 8.04932Z" fill="white"/>
<path d="M70.8313 15.8511V30.8339H67.0277V19.0551H64.6016V15.8511H70.8313Z" fill="white"/>
<path d="M45.2853 16.0001C44.5658 15.6436 43.6485 15.4653 42.5286 15.4653C41.391 15.4653 40.3327 15.6825 39.3538 16.1184C38.396 16.5528 37.5565 17.1475 36.837 17.8979C36.1174 18.6304 35.5583 19.4699 35.1596 20.4196C34.7804 21.3693 34.5908 22.3676 34.5908 23.4162C34.5908 24.8213 34.9311 26.1259 35.6085 27.3316C36.307 28.5179 37.2454 29.4773 38.4252 30.2099C39.6228 30.9213 40.9907 31.2779 42.5286 31.2779C43.6469 31.2779 44.5658 31.1191 45.2853 30.803C46.0049 30.4659 46.5737 30.1207 46.9935 29.7642V26.322C46.4749 26.698 45.885 27.014 45.2254 27.2717C44.5868 27.5083 43.7976 27.6282 42.8593 27.6282C41.6405 27.6282 40.6325 27.2328 39.8335 26.4419C39.0346 25.651 38.6359 24.6414 38.6359 23.4162C38.6359 22.6059 38.8255 21.883 39.2047 21.251C39.5839 20.619 40.0928 20.1133 40.733 19.7373C41.3926 19.3613 42.1008 19.1733 42.8593 19.1733C43.7976 19.1733 44.5868 19.3014 45.2254 19.5591C45.885 19.8167 46.4733 20.1328 46.9935 20.5088V17.0373C46.5737 16.7019 46.0049 16.3551 45.2853 16.0001Z" fill="white"/>
<path fill-rule="evenodd" clip-rule="evenodd" d="M59.8706 16.5333C58.6519 15.8219 57.3052 15.4653 55.8271 15.4653C54.3686 15.4653 53.0218 15.8219 51.7837 16.5333C50.5649 17.2253 49.5877 18.175 48.8487 19.3808C48.1097 20.5671 47.7402 21.9025 47.7402 23.3854C47.7402 24.8683 48.1097 26.2037 48.8487 27.39C49.5877 28.5763 50.5666 29.526 51.7837 30.2374C53.0218 30.9294 54.3702 31.2763 55.8271 31.2763C57.3052 31.2763 58.6535 30.9294 59.8706 30.2374C61.0894 29.526 62.0666 28.5763 62.8056 27.39C63.5641 26.2037 63.9433 24.8683 63.9433 23.3854C63.9433 21.9025 63.5641 20.5671 62.8056 19.3808C62.0666 18.175 61.0877 17.2253 59.8706 16.5333ZM53.8192 19.619C54.4383 19.2835 55.1076 19.115 55.8255 19.115C56.5435 19.115 57.2128 19.2835 57.8319 19.619C58.451 19.9545 58.9501 20.4391 59.3293 21.0727C59.7086 21.7064 59.8982 22.4778 59.8982 23.387C59.8982 24.2962 59.7086 25.0676 59.3293 25.7013C58.9501 26.3349 58.451 26.8195 57.8319 27.155C57.2128 27.471 56.5435 27.6298 55.8255 27.6298C55.1076 27.6298 54.4383 27.471 53.8192 27.155C53.2001 26.8195 52.7009 26.3349 52.3217 25.7013C51.9619 25.0676 51.782 24.2962 51.782 23.387C51.782 22.4778 51.9619 21.7064 52.3217 21.0727C52.7009 20.4407 53.2001 19.9561 53.8192 19.619Z" fill="white"/>
<path d="M76.2538 17.987V15.851H72.4502V30.8338H76.2538V21.3401C76.6736 20.747 77.1727 20.2332 77.7513 19.7973C78.3509 19.3613 78.9895 19.1442 79.6685 19.1442C80.5275 19.1442 81.1968 19.3921 81.6749 19.8864C82.174 20.3807 82.4236 21.1327 82.4236 22.1407L82.4544 30.8338H86.258V21.6367C86.258 19.5801 85.7394 18.0373 84.7006 17.0082C83.6618 15.9791 82.3734 15.4653 80.837 15.4653C79.8192 15.4653 78.9101 15.7327 78.1111 16.2659C77.3332 16.8007 76.7141 17.3744 76.2538 17.987Z" fill="white"/>
<path fill-rule="evenodd" clip-rule="evenodd" d="M96.8833 15.4653C98.081 15.4653 99.1911 15.7716 100.209 16.3842C101.248 16.9774 102.076 17.8574 102.695 19.0242C103.333 20.1717 103.653 21.5751 103.653 23.2379C103.653 24.8991 103.333 26.3333 102.695 27.5391C102.076 28.7448 101.227 29.6751 100.149 30.3282C99.0906 30.9619 97.9124 31.2779 96.6143 31.2779C95.7764 31.2779 94.937 31.0802 94.0975 30.6847C93.279 30.2698 92.5903 29.7545 92.0312 29.1419V34.5435H88.2275V15.851H92.0312V18.3728C92.4703 17.5624 93.1105 16.8801 93.9484 16.3259C94.7862 15.7522 95.7651 15.4653 96.8833 15.4653ZM95.9239 19.2333C95.2449 19.2333 94.6063 19.4116 94.0067 19.7681C93.4071 20.1036 92.9176 20.5882 92.5384 21.2218C92.1786 21.8555 92.0085 22.6156 92.0295 23.5069V25.6721C92.5692 26.2264 93.1478 26.6915 93.7669 27.0658C94.4054 27.4224 95.0942 27.6007 95.8332 27.6007C96.6127 27.6007 97.2917 27.3932 97.8703 26.9783C98.4505 26.5634 98.8994 26.0286 99.2187 25.3755C99.5379 24.703 99.6984 23.9915 99.6984 23.2395C99.6984 22.1116 99.3483 21.1635 98.6498 20.3921C97.9708 19.619 97.0632 19.2333 95.9239 19.2333Z" fill="white"/>
<path fill-rule="evenodd" clip-rule="evenodd" d="M125.86 34.545V29.1434C126.419 29.756 127.108 30.2714 127.927 30.6862C128.764 31.0817 129.604 31.2794 130.442 31.2794C131.74 31.2794 132.918 30.9634 133.976 30.3297C135.054 29.6766 135.903 28.748 136.522 27.5406C137.161 26.3348 137.482 24.9006 137.482 23.2394C137.482 21.5783 137.163 20.1732 136.522 19.0258C135.903 17.8589 135.075 16.9789 134.036 16.3857C133.019 15.7731 131.91 15.4668 130.711 15.4668C129.593 15.4668 128.614 15.7537 127.774 16.3274C126.936 16.8817 126.296 17.5639 125.857 18.3743V15.8526H122.052V34.5466H125.86V34.545ZM129.755 19.2332C129.076 19.2332 128.437 19.4115 127.837 19.768C127.238 20.1035 126.748 20.5881 126.369 21.2217C126.011 21.8554 125.841 22.6155 125.86 23.5068V25.672C126.4 26.2262 126.978 26.6914 127.598 27.0657C128.236 27.4223 128.926 27.6005 129.665 27.6005C130.443 27.6005 131.122 27.3931 131.703 26.9782C132.281 26.5633 132.73 26.0285 133.049 25.3754C133.369 24.7028 133.529 23.9914 133.529 23.2394C133.529 22.1115 133.179 21.1634 132.481 20.392C131.801 19.6189 130.892 19.2332 129.755 19.2332Z" fill="white"/>
<path fill-rule="evenodd" clip-rule="evenodd" d="M114.231 16.0293C113.393 15.6533 112.563 15.4653 111.744 15.4653C110.446 15.4653 109.258 15.7911 108.181 16.4442C107.122 17.0779 106.273 17.987 105.635 19.1733C105.016 20.3596 104.706 21.7842 104.706 23.4453C104.706 25.1065 105.016 26.5213 105.635 27.6882C106.254 28.855 107.072 29.7448 108.092 30.359C109.13 30.9716 110.258 31.2779 111.477 31.2779C112.595 31.2779 113.574 30.991 114.412 30.4173C115.25 29.8242 115.89 29.1224 116.329 28.3105V30.8322H120.133V15.8494H116.329V17.5397C115.77 16.9093 115.07 16.4053 114.231 16.0293ZM110.458 19.7681C111.036 19.3532 111.727 19.1458 112.524 19.1458C113.263 19.1458 113.942 19.3143 114.561 19.6498C115.2 19.9869 115.79 20.4407 116.329 21.0144V23.1504C116.329 24.0596 116.14 24.8407 115.76 25.4938C115.401 26.1275 114.923 26.6218 114.323 26.9767C113.743 27.3333 113.114 27.5115 112.436 27.5115C111.297 27.5115 110.378 27.1161 109.68 26.3252C109.001 25.5343 108.662 24.5749 108.662 23.447C108.662 22.695 108.821 21.9933 109.142 21.3401C109.458 20.687 109.899 20.1636 110.458 19.7681Z" fill="white"/>
<path fill-rule="evenodd" clip-rule="evenodd" d="M150.009 16.415C148.951 15.7814 147.682 15.4653 146.204 15.4653C144.726 15.4653 143.409 15.8413 142.25 16.5933C141.091 17.3258 140.183 18.295 139.524 19.5007C138.864 20.7065 138.535 22.0419 138.535 23.5053C138.535 25.0093 138.895 26.343 139.615 27.5099C140.354 28.6768 141.332 29.5973 142.55 30.2698C143.788 30.9424 145.156 31.2779 146.653 31.2779C147.792 31.2779 148.83 31.0704 149.768 30.6556C150.727 30.2212 151.445 29.795 151.925 29.3801L151.954 25.8795C151.416 26.3349 150.697 26.779 149.797 27.2149C148.898 27.6493 147.899 27.8681 146.801 27.8681C145.642 27.8681 144.665 27.5618 143.864 26.9492C143.065 26.3366 142.566 25.5246 142.366 24.5166H153.33V22.9138C153.33 21.4503 153.04 20.1652 152.461 19.0567C151.906 17.9287 151.087 17.0487 150.009 16.415ZM143.747 19.619C144.386 19.0453 145.175 18.7585 146.113 18.7585C146.972 18.7585 147.762 19.0259 148.479 19.5591C149.199 20.0728 149.598 20.8653 149.677 21.9333H142.428C142.67 20.9641 143.109 20.1927 143.747 19.619Z" fill="white"/>
<path d="M164.008 20.0645C163.37 19.7079 162.7 19.5297 162.002 19.5297C161.124 19.5297 160.394 19.8165 159.816 20.3902C159.236 20.9445 158.727 21.6365 158.288 22.4663V30.8336H154.484V15.8508H158.288V18.6691C158.808 17.7794 159.415 17.0371 160.116 16.444C160.835 15.8508 161.644 15.5542 162.542 15.5542C163.081 15.5542 163.571 15.6434 164.01 15.8216V20.0645H164.008Z" fill="white"/>
</g>
</g>
</g>
<defs>
<clipPath id="clip0_168_3504">
<rect width="164" height="35" fill="white"/>
</clipPath>
<clipPath id="clip1_168_3504">
<rect width="164" height="35" fill="white"/>
</clipPath>
<clipPath id="clip2_168_3504">
<rect width="164" height="35" fill="white"/>
</clipPath>
</defs>
</svg>
